<?xml version="1.0" encoding="utf-8"?>
<!-- Generator: Adobe Illustrator 26.0.2, SVG Export Plug-In . SVG Version: 6.00 Build 0)  -->
<svg version="1.1" id="Layer_1" xmlns="http://www.w3.org/2000/svg" xmlns:xlink="http://www.w3.org/1999/xlink" x="0px" y="0px"
	 viewBox="0 0 21 20" style="enable-background:new 0 0 21 20;" xml:space="preserve">
<g id="Desktop">
	<g id="Miracle-Upsells-01" transform="translate(-766.000000, -750.000000)">
		<g id="Group-2" transform="translate(736.000000, 678.000000)">
			<g id="_x30_12-clock-copy" transform="translate(30.000000, 72.000000)">
				<path id="XMLID_389_" d="M20.8,11c-0.2-1.9-1-3.7-2.4-5c-1.1-1.1-2.5-1.9-4-2.2v-1c0.6-0.1,1-0.7,1-1.3c0-0.8-0.6-1.4-1.4-1.4
					h-2.9c-0.8,0-1.4,0.6-1.4,1.4c0,0.6,0.4,1.2,1,1.3v1C9.3,4.1,7.9,4.8,6.8,6C6.6,6.2,6.3,6.5,6.1,6.8c0,0,0,0,0,0H3.2
					C3,6.8,2.8,6.9,2.8,7.2S3,7.6,3.2,7.6h2.4C5.3,8.1,5,8.6,4.8,9.1H0.4C0.2,9.1,0,9.3,0,9.5s0.2,0.4,0.4,0.4h4.2
					c-0.1,0.5-0.2,1-0.2,1.6H2.6c-0.2,0-0.4,0.2-0.4,0.4s0.2,0.4,0.4,0.4h1.8c0,0.5,0.1,1.1,0.3,1.6H2c-0.2,0-0.4,0.2-0.4,0.4
					s0.2,0.4,0.4,0.4h2.9c0.4,1.1,1,2,1.9,2.9c1.3,1.3,3.1,2.2,5,2.4c0.3,0,0.5,0,0.8,0c1.6,0,3.2-0.5,4.5-1.3
					c0.2-0.1,0.2-0.4,0.1-0.6c-0.1-0.2-0.4-0.2-0.6-0.1c-2.9,1.9-6.8,1.5-9.3-1c-2.9-2.9-2.9-7.6,0-10.5c2.9-2.9,7.6-2.9,10.5,0
					c2.5,2.5,2.9,6.4,1,9.3c-0.1,0.2-0.1,0.4,0.1,0.6c0.2,0.1,0.4,0.1,0.6-0.1C20.5,14.7,21,12.8,20.8,11z M10.6,1.4
					c0-0.3,0.3-0.6,0.6-0.6h2.9c0.3,0,0.6,0.3,0.6,0.6S14.4,2,14.1,2H14h-2.8h-0.1C10.8,2,10.6,1.7,10.6,1.4z M11.6,3.6V2.8h2v0.9
					C12.9,3.5,12.3,3.5,11.6,3.6z"/>
				<path id="XMLID_391_" d="M18.1,16.9c-0.1,0-0.2,0-0.3,0.1c-0.1,0.1-0.1,0.2-0.1,0.3s0,0.2,0.1,0.3c0.1,0.1,0.2,0.1,0.3,0.1
					c0.1,0,0.2,0,0.3-0.1c0.1-0.1,0.1-0.2,0.1-0.3s0-0.2-0.1-0.3C18.4,16.9,18.2,16.9,18.1,16.9z"/>
				<path id="XMLID_394_" d="M12.6,5.5c-3.5,0-6.3,2.8-6.3,6.3s2.8,6.3,6.3,6.3s6.3-2.8,6.3-6.3S16.1,5.5,12.6,5.5z M12.6,17.3
					c-3,0-5.5-2.5-5.5-5.5s2.5-5.5,5.5-5.5s5.5,2.5,5.5,5.5S15.6,17.3,12.6,17.3z"/>
				<path id="XMLID_397_" d="M15.2,8.6l-2,2c-0.2-0.1-0.4-0.1-0.6-0.1c-0.2,0-0.4,0-0.6,0.1l-0.9-0.9c-0.2-0.2-0.4-0.2-0.6,0
					c-0.2,0.2-0.2,0.4,0,0.6l0.9,0.9c-0.1,0.2-0.1,0.4-0.1,0.6c0,0.7,0.6,1.3,1.3,1.3s1.3-0.6,1.3-1.3c0-0.2,0-0.4-0.1-0.6l2-2
					l0.1-0.1c0.2-0.2,0.2-0.4,0-0.6S15.3,8.5,15.2,8.6z M12.6,12.2c-0.2,0-0.5-0.2-0.5-0.5c0-0.2,0.2-0.5,0.5-0.5s0.5,0.2,0.5,0.5
					C13.1,12,12.9,12.2,12.6,12.2z"/>
				<path id="XMLID_398_" d="M17,11.4h-0.4c-0.2,0-0.4,0.2-0.4,0.4s0.2,0.4,0.4,0.4H17c0.2,0,0.4-0.2,0.4-0.4S17.2,11.4,17,11.4z"/>
				<path id="XMLID_399_" d="M8.6,11.4H8.3c-0.2,0-0.4,0.2-0.4,0.4s0.2,0.4,0.4,0.4h0.4C8.9,12.2,9,12,9,11.8S8.9,11.4,8.6,11.4z"/>
				<path id="XMLID_400_" d="M12.6,8.2C12.8,8.2,13,8,13,7.8V7.4C13,7.2,12.8,7,12.6,7s-0.4,0.2-0.4,0.4v0.4
					C12.2,8,12.4,8.2,12.6,8.2z"/>
				<path id="XMLID_424_" d="M12.6,15.3c-0.2,0-0.4,0.2-0.4,0.4v0.4c0,0.2,0.2,0.4,0.4,0.4c0.2,0,0.4-0.2,0.4-0.4v-0.4
					C13,15.5,12.8,15.3,12.6,15.3z"/>
				<path id="XMLID_425_" d="M0.4,13.9c-0.1,0-0.2,0-0.3,0.1S0,14.2,0,14.3c0,0.1,0,0.2,0.1,0.3s0.2,0.1,0.3,0.1s0.2,0,0.3-0.1
					c0.1-0.1,0.1-0.2,0.1-0.3s0-0.2-0.1-0.3C0.6,13.9,0.5,13.9,0.4,13.9z"/>
			</g>
		</g>
	</g>
</g>
</svg>
