<svg xmlns="http://www.w3.org/2000/svg" id="Layer_1" height="512" viewBox="0 0 256 256" width="512"><g><g><path d="m215.778 89.924-71.099 106.956v32.535l-40.678 22.585v-55.12l-71.099-106.956z" fill="#526faa"></path></g><g><path d="m111.894 247.617v-50.737l-71.099-106.956h-7.893l71.099 106.956v55.12z" fill="#708dc8"></path></g><g><path d="m207.885 89.924-71.1 106.956v36.917l7.894-4.382v-32.535l71.099-106.956z" fill="#34518c"></path></g><g><path d="m104.001 254c-.351 0-.702-.092-1.015-.276-.61-.359-.985-1.015-.985-1.724v-54.517l-70.765-106.452c-.408-.614-.445-1.403-.097-2.052.348-.65 1.025-1.055 1.763-1.055h182.876c.737 0 1.414.405 1.763 1.055.349.649.311 1.438-.097 2.052l-70.766 106.452v31.931c0 .727-.394 1.396-1.029 1.749l-40.678 22.585c-.301.169-.636.252-.97.252zm-67.368-162.076 69.034 103.848c.218.328.334.713.334 1.107v51.723l36.678-20.365v-31.358c0-.394.116-.779.334-1.107l69.034-103.848z" fill="#690589"></path></g><g><path d="m177.136 65.639v-17.686h-9.787c-1.137-5.559-3.331-10.73-6.353-15.307l6.93-6.93-12.506-12.506-6.93 6.93c-4.577-3.022-9.748-5.216-15.307-6.353v-9.787h-17.686v9.787c-5.559 1.137-10.73 3.331-15.307 6.353l-6.929-6.93-12.507 12.507 6.93 6.93c-3.022 4.577-5.216 9.748-6.353 15.307h-9.787v17.686h9.787c1.137 5.559 3.332 10.73 6.353 15.307l-6.93 6.93 12.506 12.506 6.929-6.93c4.577 3.021 9.748 5.216 15.307 6.353v9.787h17.686v-9.787c5.559-1.137 10.73-3.332 15.307-6.353l6.929 6.93 12.506-12.506-6.93-6.93c3.022-4.577 5.216-9.748 6.353-15.307h9.789zm-52.796 17.625c-14.618 0-26.468-11.85-26.468-26.468s11.85-26.468 26.468-26.468 26.468 11.85 26.468 26.468-11.85 26.468-26.468 26.468z" fill="#fcc24c"></path></g><g><path d="m133.183 111.593h-17.686c-1.104 0-2-.896-2-2v-8.185c-4.595-1.112-8.964-2.926-13.026-5.408l-5.796 5.796c-.75.75-2.078.751-2.828 0l-12.507-12.505c-.375-.375-.586-.884-.586-1.414s.211-1.039.586-1.414l5.796-5.796c-2.482-4.062-4.296-8.431-5.408-13.027h-8.185c-1.104 0-2-.896-2-2v-17.686c0-1.104.896-2 2-2h8.185c1.112-4.595 2.926-8.964 5.408-13.026l-5.796-5.796c-.375-.375-.586-.884-.586-1.414s.211-1.039.586-1.414l12.506-12.506c.375-.375.884-.586 1.414-.586.53 0 1.039.211 1.414.586l5.796 5.796c4.062-2.481 8.43-4.295 13.026-5.408v-8.186c0-1.104.896-2 2-2h17.686c1.104 0 2 .896 2 2v8.185c4.597 1.113 8.966 2.927 13.026 5.408l5.796-5.796c.75-.75 2.078-.751 2.828 0l12.507 12.506c.375.375.586.884.586 1.414s-.211 1.039-.586 1.414l-5.796 5.796c2.481 4.062 4.295 8.431 5.407 13.026h8.186c1.104 0 2 .896 2 2v17.686c0 1.104-.896 2-2 2h-8.186c-1.112 4.596-2.926 8.965-5.407 13.027l5.796 5.796c.375.375.586.884.586 1.414s-.211 1.039-.586 1.414l-12.507 12.506c-.375.375-.884.586-1.414.586-.53 0-1.039-.211-1.414-.586l-5.795-5.796c-4.062 2.481-8.431 4.295-13.026 5.408v8.185c0 1.104-.896 2-2 2zm-15.686-4h13.686v-7.787c0-.95.668-1.769 1.6-1.959 5.213-1.066 10.127-3.106 14.606-6.062.791-.524 1.843-.417 2.516.255l5.515 5.515 9.679-9.677-5.516-5.516c-.672-.671-.778-1.723-.255-2.516 2.956-4.479 4.996-9.393 6.062-14.606.189-.931 1.009-1.599 1.959-1.599h7.788v-13.687h-7.788c-.95 0-1.77-.668-1.959-1.599-1.066-5.213-3.106-10.127-6.062-14.606-.523-.793-.417-1.845.255-2.516l5.516-5.516-9.679-9.677-5.515 5.515c-.67.672-1.724.78-2.516.255-4.479-2.957-9.393-4.996-14.606-6.063-.932-.19-1.6-1.009-1.6-1.959v-7.788h-13.686v7.787c0 .95-.668 1.769-1.599 1.959-5.213 1.066-10.127 3.106-14.606 6.063-.792.524-1.844.418-2.516-.255l-5.516-5.514-9.678 9.677 5.515 5.516c.672.671.778 1.723.255 2.516-2.957 4.479-4.997 9.394-6.062 14.606-.19.931-1.009 1.599-1.959 1.599h-7.787v13.686h7.787c.95 0 1.769.668 1.959 1.599 1.066 5.213 3.105 10.127 6.062 14.606.523.793.417 1.845-.255 2.516l-5.515 5.516 9.678 9.677 5.515-5.515c.672-.673 1.724-.779 2.516-.255 4.48 2.957 9.395 4.997 14.606 6.062.931.19 1.599 1.009 1.599 1.959v7.788zm6.843-22.329c-15.697 0-28.468-12.771-28.468-28.468s12.771-28.468 28.468-28.468 28.468 12.771 28.468 28.468-12.771 28.468-28.468 28.468zm0-52.935c-13.492 0-24.468 10.976-24.468 24.468s10.976 24.468 24.468 24.468c13.491 0 24.468-10.976 24.468-24.468s-10.977-24.468-24.468-24.468z" fill="#690589"></path></g><g><path d="m160.074 27.214-4.212 4.212c-.692.692-.847 1.774-.338 2.611 2.284 3.756 4.023 7.879 5.1 12.263.236.962 1.076 1.653 2.066 1.653h4.659c-1.137-5.559-3.331-10.73-6.353-15.307l6.93-6.93-12.506-12.506-3.177 3.177 7.832 7.832c.826.827.826 2.168-.001 2.995z" fill="#dea42e"></path></g><g><path d="m170.783 47.953h6.354v17.686h-6.354z" fill="#dea42e"></path></g><g><path d="m167.349 65.639h-4.659c-.991 0-1.83.691-2.066 1.653-1.077 4.385-2.816 8.508-5.1 12.263-.509.837-.354 1.918.338 2.61l4.212 4.212c.827.827.827 2.168 0 2.995l-7.832 7.832 3.177 3.177 12.506-12.506-6.93-6.93c3.023-4.575 5.217-9.747 6.354-15.306z" fill="#dea42e"></path></g><g><path d="m88.606 27.214 4.212 4.212c.692.692.847 1.774.338 2.611-2.284 3.756-4.023 7.879-5.1 12.263-.236.962-1.076 1.653-2.066 1.653h-4.659c1.137-5.559 3.331-10.73 6.353-15.307l-6.93-6.93 12.506-12.505 3.177 3.177-7.832 7.832c-.827.826-.827 2.167.001 2.994z" fill="#fce06a"></path></g><g><path d="m71.543 47.953h6.354v17.686h-6.354z" fill="#fce06a"></path></g><g><path d="m81.331 65.639h4.659c.991 0 1.83.691 2.066 1.653 1.077 4.385 2.816 8.508 5.1 12.263.509.837.354 1.918-.338 2.61l-4.212 4.212c-.827.827-.827 2.168 0 2.995l7.832 7.832-3.177 3.177-12.507-12.505 6.93-6.93c-3.022-4.576-5.216-9.748-6.353-15.307z" fill="#fce06a"></path></g><g><path d="m133.183 111.593h-17.686c-1.104 0-2-.896-2-2v-8.185c-4.595-1.112-8.964-2.926-13.026-5.408l-5.796 5.796c-.75.75-2.078.751-2.828 0l-12.507-12.505c-.375-.375-.586-.884-.586-1.414s.211-1.039.586-1.414l5.796-5.796c-2.482-4.062-4.296-8.431-5.408-13.027h-8.185c-1.104 0-2-.896-2-2v-17.686c0-1.104.896-2 2-2h8.185c1.112-4.595 2.926-8.964 5.408-13.026l-5.796-5.796c-.375-.375-.586-.884-.586-1.414s.211-1.039.586-1.414l12.506-12.506c.375-.375.884-.586 1.414-.586.53 0 1.039.211 1.414.586l5.796 5.796c4.062-2.481 8.43-4.295 13.026-5.408v-8.186c0-1.104.896-2 2-2h17.686c1.104 0 2 .896 2 2v8.185c4.597 1.113 8.966 2.927 13.026 5.408l5.796-5.796c.75-.75 2.078-.751 2.828 0l12.507 12.506c.375.375.586.884.586 1.414s-.211 1.039-.586 1.414l-5.796 5.796c2.481 4.062 4.295 8.431 5.407 13.026h8.186c1.104 0 2 .896 2 2v17.686c0 1.104-.896 2-2 2h-8.186c-1.112 4.596-2.926 8.965-5.407 13.027l5.796 5.796c.375.375.586.884.586 1.414s-.211 1.039-.586 1.414l-12.507 12.506c-.375.375-.884.586-1.414.586-.53 0-1.039-.211-1.414-.586l-5.795-5.796c-4.062 2.481-8.431 4.295-13.026 5.408v8.185c0 1.104-.896 2-2 2zm-15.686-4h13.686v-7.787c0-.95.668-1.769 1.6-1.959 5.213-1.066 10.127-3.106 14.606-6.062.791-.524 1.843-.417 2.516.255l5.515 5.515 9.679-9.677-5.516-5.516c-.672-.671-.778-1.723-.255-2.516 2.956-4.479 4.996-9.393 6.062-14.606.189-.931 1.009-1.599 1.959-1.599h7.788v-13.687h-7.788c-.95 0-1.77-.668-1.959-1.599-1.066-5.213-3.106-10.127-6.062-14.606-.523-.793-.417-1.845.255-2.516l5.516-5.516-9.679-9.677-5.515 5.515c-.67.672-1.724.78-2.516.255-4.479-2.957-9.393-4.996-14.606-6.063-.932-.19-1.6-1.009-1.6-1.959v-7.788h-13.686v7.787c0 .95-.668 1.769-1.599 1.959-5.213 1.066-10.127 3.106-14.606 6.063-.792.524-1.844.418-2.516-.255l-5.516-5.514-9.678 9.677 5.515 5.516c.672.671.778 1.723.255 2.516-2.957 4.479-4.997 9.394-6.062 14.606-.19.931-1.009 1.599-1.959 1.599h-7.787v13.686h7.787c.95 0 1.769.668 1.959 1.599 1.066 5.213 3.105 10.127 6.062 14.606.523.793.417 1.845-.255 2.516l-5.515 5.516 9.678 9.677 5.515-5.515c.672-.673 1.724-.779 2.516-.255 4.48 2.957 9.395 4.997 14.606 6.062.931.19 1.599 1.009 1.599 1.959v7.788zm6.843-22.329c-15.697 0-28.468-12.771-28.468-28.468s12.771-28.468 28.468-28.468 28.468 12.771 28.468 28.468-12.771 28.468-28.468 28.468zm0-52.935c-13.492 0-24.468 10.976-24.468 24.468s10.976 24.468 24.468 24.468c13.491 0 24.468-10.976 24.468-24.468s-10.977-24.468-24.468-24.468z" fill="#690589"></path></g><g><ellipse cx="180.046" cy="159.213" fill="#fcc24c" rx="31.213" ry="31.213" transform="matrix(.837 -.547 .547 .837 -57.783 124.532)"></ellipse></g><g><path d="m180.046 128c-.999 0-1.985.052-2.96.144 15.849 1.492 28.253 14.829 28.253 31.069 0 16.239-12.403 29.577-28.253 31.069.975.092 1.961.144 2.96.144 17.238 0 31.213-13.974 31.213-31.213-.001-17.239-13.975-31.213-31.213-31.213z" fill="#dea42e"></path></g><g><path d="m180.046 190.425c.999 0 1.985-.052 2.96-.144-15.849-1.491-28.253-14.829-28.253-31.069s12.403-29.578 28.253-31.069c-.975-.092-1.961-.144-2.96-.144-17.238 0-31.213 13.974-31.213 31.213s13.974 31.213 31.213 31.213z" fill="#fce06a"></path></g><g><path d="m180.046 192.425c-18.313 0-33.213-14.899-33.213-33.213s14.899-33.212 33.213-33.212 33.213 14.899 33.213 33.212-14.9 33.213-33.213 33.213zm0-62.425c-16.108 0-29.213 13.104-29.213 29.212s13.104 29.213 29.213 29.213 29.213-13.105 29.213-29.213-13.105-29.212-29.213-29.212z" fill="#690589"></path></g><g><g><path d="m180.01 140.514c1.061 0 1.901.84 1.901 1.901v.972c2.607.31 4.818 1.149 6.851 2.431.708.398 1.326 1.061 1.326 2.122 0 1.37-1.105 2.431-2.475 2.431-.442 0-.884-.132-1.326-.398-1.547-.928-3.05-1.591-4.553-1.945v8.487c6.718 1.68 9.592 4.376 9.592 9.106 0 4.862-3.801 8.089-9.415 8.62v2.652c0 1.061-.84 1.901-1.901 1.901s-1.945-.84-1.945-1.901v-2.741c-3.315-.354-6.365-1.547-9.061-3.448-.752-.486-1.194-1.193-1.194-2.122 0-1.37 1.061-2.431 2.432-2.431.53 0 1.06.177 1.458.486 2.077 1.503 4.111 2.52 6.542 2.962v-8.708c-6.454-1.68-9.46-4.111-9.46-9.106 0-4.73 3.757-8.001 9.283-8.443v-.928c0-1.06.884-1.9 1.945-1.9zm-1.768 15.073v-7.824c-2.829.265-4.243 1.768-4.243 3.713 0 1.856.839 3.006 4.243 4.111zm3.492 6.144v8.045c2.829-.309 4.376-1.724 4.376-3.846 0-1.945-.973-3.139-4.376-4.199z" fill="#690589"></path></g></g><g><path d="m65.729 127.944c-.647 0-1.282-.313-1.667-.893l-5.784-8.7c-.611-.92-.361-2.162.558-2.773.922-.612 2.162-.36 2.773.558l5.784 8.7c.611.92.361 2.162-.558 2.773-.342.227-.726.335-1.106.335z" fill="#690589"></path></g><g><path d="m191.361 198.067 7.935 9.424 7.934 9.425 7.934-9.425 7.934-9.424h-9.475v-25.537h-12.787v25.537z" fill="#8852a8"></path></g><g><path d="m207.229 218.916c-.59 0-1.15-.261-1.53-.712l-15.868-18.849c-.501-.595-.611-1.427-.283-2.132s1.035-1.156 1.813-1.156h7.475v-23.537c0-1.104.896-2 2-2h12.787c1.104 0 2 .896 2 2v23.537h7.476c.778 0 1.485.451 1.813 1.156s.218 1.537-.283 2.132l-15.869 18.849c-.38.451-.941.712-1.531.712zm-11.57-18.849 11.57 13.744 11.571-13.744h-5.178c-1.104 0-2-.896-2-2v-23.537h-8.787v23.537c0 1.104-.896 2-2 2z" fill="#690589"></path></g></g></svg>