<svg xmlns="http://www.w3.org/2000/svg" id="Layer_3" height="512" viewBox="0 0 64 64" width="512"><g><g><circle cx="7" cy="32" fill="#c66b60" r="5"></circle></g><g><circle cx="14" cy="14" fill="#c66b60" r="5"></circle></g><g><circle cx="32" cy="7" fill="#c66b60" r="5"></circle></g><g><circle cx="32" cy="57" fill="#c66b60" r="5"></circle></g><g><circle cx="50" cy="50" fill="#c66b60" r="5"></circle></g><g><circle cx="57" cy="32" fill="#c66b60" r="5"></circle></g><g><circle cx="14" cy="50" fill="#c66b60" r="5"></circle></g><g><circle cx="50" cy="14" fill="#c66b60" r="5"></circle></g><g><circle cx="32" cy="32" fill="#3d98f7" r="13"></circle></g><g><g><path d="m12 31h7v2h-7z" fill="#4d5d7a"></path></g></g><g><g><path d="m19 15.757h2v8.485h-2z" fill="#4d5d7a" transform="matrix(.707 -.707 .707 .707 -8.284 20)"></path></g></g><g><g><path d="m31 12h2v7h-2z" fill="#4d5d7a"></path></g></g><g><g><path d="m31 45h2v7h-2z" fill="#4d5d7a"></path></g></g><g><g><path d="m43 39.757h2v8.485h-2z" fill="#4d5d7a" transform="matrix(.707 -.707 .707 .707 -18.225 44)"></path></g></g><g><g><path d="m15.757 43h8.485v2h-8.485z" fill="#4d5d7a" transform="matrix(.707 -.707 .707 .707 -25.255 27.029)"></path></g></g><g><g><path d="m39.757 19h8.485v2h-8.485z" fill="#4d5d7a" transform="matrix(.707 -.707 .707 .707 -1.255 36.971)"></path></g></g><g><g><path d="m45 31h7v2h-7z" fill="#4d5d7a"></path></g></g><g><path d="m27.775 34.617 11.45-2.642c.454-.105.775-.509.775-.975v-5c0-.552-.448-1-1-1h-10.883l-.123-1.11c-.056-.507-.484-.89-.994-.89h-3v2h2.105l.865 7.782c-1.174.428-1.97 1.53-1.97 2.809v1.409c0 .28.116.531.302.713-.188.391-.302.825-.302 1.287 0 1.654 1.346 3 3 3s3-1.346 3-3c0-.352-.072-.686-.184-1h2.369c-.113.314-.185.648-.185 1 0 1.654 1.346 3 3 3s3-1.346 3-3c0-.352-.072-.686-.184-1h1.184v-2h-13v-.409c0-.468.319-.869.775-.974zm4.225-3.028v-4.589h2v4.127zm6-1.384-2 .461v-3.666h2zm-8-3.205v5.05l-1.072.247-.589-5.297zm-1 12c0 .551-.449 1-1 1s-1-.449-1-1 .449-1 1-1 1 .449 1 1zm8 0c0 .551-.449 1-1 1s-1-.449-1-1 .449-1 1-1 1 .449 1 1z" fill="#fff"></path></g><g><g><path d="m32 46c-7.72 0-14-6.28-14-14s6.28-14 14-14 14 6.28 14 14-6.28 14-14 14zm0-26c-6.617 0-12 5.383-12 12s5.383 12 12 12 12-5.383 12-12-5.383-12-12-12z" fill="#4472b2"></path></g></g><g><g><path d="m7 38c-3.309 0-6-2.691-6-6s2.691-6 6-6 6 2.691 6 6-2.691 6-6 6zm0-10c-2.206 0-4 1.794-4 4s1.794 4 4 4 4-1.794 4-4-1.794-4-4-4z" fill="#e47c6e"></path></g></g><g><g><path d="m14 20c-3.309 0-6-2.691-6-6s2.691-6 6-6 6 2.691 6 6-2.691 6-6 6zm0-10c-2.206 0-4 1.794-4 4s1.794 4 4 4 4-1.794 4-4-1.794-4-4-4z" fill="#e47c6e"></path></g></g><g><g><path d="m32 13c-3.309 0-6-2.691-6-6s2.691-6 6-6 6 2.691 6 6-2.691 6-6 6zm0-10c-2.206 0-4 1.794-4 4s1.794 4 4 4 4-1.794 4-4-1.794-4-4-4z" fill="#e47c6e"></path></g></g><g><g><path d="m32 63c-3.309 0-6-2.691-6-6s2.691-6 6-6 6 2.691 6 6-2.691 6-6 6zm0-10c-2.206 0-4 1.794-4 4s1.794 4 4 4 4-1.794 4-4-1.794-4-4-4z" fill="#e47c6e"></path></g></g><g><g><path d="m50 56c-3.309 0-6-2.691-6-6s2.691-6 6-6 6 2.691 6 6-2.691 6-6 6zm0-10c-2.206 0-4 1.794-4 4s1.794 4 4 4 4-1.794 4-4-1.794-4-4-4z" fill="#e47c6e"></path></g></g><g><g><path d="m57 38c-3.309 0-6-2.691-6-6s2.691-6 6-6 6 2.691 6 6-2.691 6-6 6zm0-10c-2.206 0-4 1.794-4 4s1.794 4 4 4 4-1.794 4-4-1.794-4-4-4z" fill="#e47c6e"></path></g></g><g><g><path d="m14 56c-3.309 0-6-2.691-6-6s2.691-6 6-6 6 2.691 6 6-2.691 6-6 6zm0-10c-2.206 0-4 1.794-4 4s1.794 4 4 4 4-1.794 4-4-1.794-4-4-4z" fill="#e47c6e"></path></g></g><g><g><path d="m50 20c-3.309 0-6-2.691-6-6s2.691-6 6-6 6 2.691 6 6-2.691 6-6 6zm0-10c-2.206 0-4 1.794-4 4s1.794 4 4 4 4-1.794 4-4-1.794-4-4-4z" fill="#e47c6e"></path></g></g></g></svg>