<?xml version="1.0" encoding="utf-8"?>
<!-- Generator: Adobe Illustrator 26.0.3, SVG Export Plug-In . SVG Version: 6.00 Build 0)  -->
<svg version="1.1" id="Layer_1" xmlns="http://www.w3.org/2000/svg" xmlns:xlink="http://www.w3.org/1999/xlink" x="0px" y="0px"
	 viewBox="0 0 1024 1022.5" style="enable-background:new 0 0 1024 1022.5;" xml:space="preserve">
<style type="text/css">
	.st0{fill:#21759B;}
</style>
<g>
	<path class="st0" d="M0,502c1.3-3,1-6.2,1.2-9.3c4-108.9,39.3-206.7,105.7-292.9c68.8-89.1,157.8-149.2,266-180.5
		c29.3-8.5,59.1-13.8,89.5-16.8c26.9-2.6,53.9-3.3,80.8-1.6c78.4,5,152.2,26.2,220.3,65.5c108,62.1,184.2,151.6,228.3,268.1
		c13.3,35.1,22.1,71.3,26.9,108.5c2.1,16.2,3.8,32.3,4,48.6c0,2.2,0,4.3,1.2,6.3c0,8.7,0,17.3,0,26c-2.6,8.2-1.3,16.8-2,25.2
		c-2,25.9-5.6,51.5-11.6,76.7c-28.4,118-90.2,214.8-186.1,289.2c-86.5,67-184.9,102.4-294.4,106.3c-3.3,0.1-6.7-0.3-9.9,1.1
		c-5.3,0-10.7,0-16,0c-9.8-2.4-19.9-1.3-29.8-2c-30.4-2.3-60.4-6.9-89.8-14.7c-112.9-30-205.7-90.9-277.2-183.2
		c-66.7-86.2-102-184.2-106-293.2c-0.1-3.1,0.1-6.3-1.2-9.3C0,514,0,508,0,502z M512.2,22.2c-270,0.7-488.9,218.3-489.3,488.1
		c-0.4,270.2,218.6,489.2,488.9,489.3c269.7,0.2,488.9-217.9,489.3-488C1001.5,241.4,782.5,22.9,512.2,22.2z"/>
	<path class="st0" d="M402.7,778.2c-5.4-16-10.4-31.1-15.5-46.2C340,591.9,292.9,451.9,245.7,311.8c-2.1-6.2-2.1-5.9,4.2-6.3
		c14.9-1.2,29.8-2.4,44.7-4.1c9.9-1.1,16.9-10.9,15.5-20.5c-1.6-10.9-10.1-17.5-20.6-16.7c-18.4,1.4-36.8,2.6-55.3,3.6
		c-26.1,1.5-52.2,2.4-78.4,2c-2.8-0.1-6.8,0.9-8-1.2c-1.3-2.3,2.1-4.8,3.7-7c61.6-87.2,143.7-145.4,246.7-173.8
		c24.9-6.9,50.2-11,76-13.3c23.5-2.1,46.9-2.5,70.3-0.6c81.6,6.5,156,33.1,222.8,80.7c13.1,9.4,25.8,19.4,38.4,31
		c-6,0.8-11.1,1.2-16.2,2.2c-31.3,6.3-55.6,32.8-60,64.4c-3,21.6,1.9,41.6,10.7,61c7.8,17.2,18,33,27.8,49
		c15.2,24.9,28,51,34.6,79.7c7.9,34.1,6.1,67.9-2.5,101.6c-10.7,41.9-24.8,82.7-36.8,124.1c-9.9,34.1-20.4,68.1-30.6,102.1
		c-0.4,1.3-0.8,2.5-1.6,4.9c-2.6-7.6-4.8-14.1-7-20.6c-49.6-147.2-99.1-294.3-148.7-441.5c-0.1-0.2-0.1-0.3-0.1-0.5
		c-2.5-7.7-2-6,4.5-6.5c14.7-1.2,29.5-2.4,44.2-4c10.4-1.2,16.7-10.4,15.3-21.4c-1.3-10.1-9.9-16.6-20.1-15.8
		c-19.4,1.4-38.8,2.6-58.3,3.7c-23.1,1.4-46.3,2.5-69.4,1.9c-25-0.7-49.9-1.6-74.8-3.6c-9.9-0.8-19.9-1.5-29.9-2
		c-10.3-0.5-18.7,7.3-19.2,17.5c-0.6,11.6,5.7,18.6,16.9,19.9c14.2,1.6,28.4,3.2,42.7,3.8c3.3,0.2,3.6,2.4,4.4,4.5
		c10.2,27.9,20.4,55.9,30.6,83.8c11.4,31.2,22.8,62.4,34.2,93.6c1.2,3.2,1.6,6.2,0.4,9.6c-31.1,93-62.2,186.1-93.2,279.1
		C403.6,776.4,403.4,776.7,402.7,778.2z"/>
	<path class="st0" d="M519.8,551.4c6.7,18.3,13,35.6,19.3,52.9C577.1,708,615,811.8,652.9,915.5c0.1,0.2,0.1,0.3,0.2,0.5
		c3.3,8.9,3.3,8.9-5.6,11.8c-28.4,9.1-57.4,15.5-87,18.6c-20.6,2.2-41.2,3.4-61.8,2.6c-35.6-1.4-70.7-6.6-105.2-16.2
		c-5.3-1.5-3.8-4.1-2.7-7.3c24.4-70.6,48.7-141.3,73-211.9c18.2-52.8,36.3-105.5,54.5-158.3C518.6,554.4,519,553.5,519.8,551.4z"/>
	<path class="st0" d="M319,904C94.7,795.5,20.7,530.9,111,334.6C180.4,524.5,249.5,713.8,319,904z"/>
	<path class="st0" d="M899,305.1c57.7,112.5,68.3,229.2,27.3,349.1c-34.6,101.1-99.8,178.3-190.7,233.9c-0.4-0.2-0.8-0.5-1.1-0.7
		c4.3-12.3,8.5-24.7,12.8-37c39.7-114.7,79.2-229.6,119.3-344.2c9.3-26.5,19.2-52.7,25.3-80.2c6.4-28.7,9.7-57.7,9.1-87
		C900.7,327.7,900.3,316.4,899,305.1z"/>
</g>
</svg>
